<svg width="60" height="60" viewBox="0 0 60 60" fill="none" xmlns="http://www.w3.org/2000/svg">
<path d="M29.9827 4.15015C15.7085 4.15015 4.13765 15.7224 4.13765 29.9953C4.13765 30.4096 4.14961 30.8212 4.16894 31.2308C2.65429 31.4199 1.47797 32.6975 1.47797 34.2634C1.47797 35.9594 2.85281 37.3342 4.54886 37.3342H5.20101C8.36426 48.0328 18.2586 55.8401 29.9827 55.8401C44.2569 55.8401 55.8278 44.2706 55.8278 29.9951C55.8279 15.7225 44.257 4.15015 29.9827 4.15015Z" fill="#FFA1E0"/>
<path d="M20.3109 21.0251C20.1847 21.0253 20.0599 20.9986 19.9448 20.9468C19.8298 20.8951 19.727 20.8195 19.6433 20.725C18.9668 19.9612 17.9891 19.5233 16.9602 19.5229H16.9594C15.9301 19.5229 14.9516 19.9611 14.274 20.7254C14.117 20.902 13.8964 21.0091 13.6605 21.0233C13.4247 21.0374 13.1928 20.9574 13.0159 20.8008C12.8391 20.644 12.7318 20.4233 12.7177 20.1874C12.7035 19.9515 12.7836 19.7196 12.9404 19.5427C13.9561 18.3974 15.4208 17.7407 16.9594 17.7407H16.9605C18.4991 17.7411 19.9631 18.3983 20.9776 19.5431C21.1342 19.7201 21.2141 19.952 21.1999 20.1879C21.1856 20.4238 21.0782 20.6444 20.9014 20.8012C20.7387 20.9457 20.5285 21.0253 20.3109 21.0251ZM40.0937 20.725C40.7713 19.9612 41.7491 19.5229 42.7787 19.5229H42.7795C43.8083 19.5233 44.7861 19.9611 45.463 20.725C45.7895 21.094 46.3534 21.1269 46.7208 20.8012C46.8976 20.6444 47.0049 20.4238 47.0192 20.1878C47.0334 19.9519 46.9533 19.72 46.7966 19.5431C45.7824 18.3983 44.3181 17.7411 42.7795 17.7407H42.7787C41.2401 17.7407 39.7749 18.3974 38.7601 19.5431C38.6825 19.6306 38.6229 19.7326 38.5847 19.8432C38.5465 19.9538 38.5305 20.0709 38.5375 20.1877C38.5445 20.3045 38.5745 20.4187 38.6257 20.5239C38.6769 20.6291 38.7483 20.7232 38.8359 20.8008C38.9987 20.9456 39.209 21.0255 39.4269 21.0251C39.553 21.0253 39.6776 20.9986 39.7926 20.9469C39.9076 20.8951 40.0102 20.8195 40.0937 20.725Z" fill="#E274C8"/>
<path d="M29.9931 44.0677C26.1389 44.0677 22.2858 42.7418 19.3525 40.0886C18.7847 39.575 18.7406 38.6985 19.2543 38.1308C19.7679 37.563 20.6444 37.5189 21.2121 38.0326C26.0546 42.4116 33.9332 42.4101 38.7764 38.0326C39.345 37.5181 40.223 37.5638 40.7343 38.1308C41.2479 38.6993 41.2038 39.5758 40.6361 40.0886C37.7011 42.741 33.8466 44.0677 29.9931 44.0677ZM20.7464 27.2886C20.0359 25.6893 18.5848 24.6957 16.9595 24.6957H16.9592C15.3335 24.6957 13.8824 25.689 13.1714 27.2886C13.1243 27.3945 13.0996 27.5037 13.0846 27.6131C12.8828 28.0758 12.975 28.6291 13.3733 28.9819C13.8676 29.4197 14.6246 29.3745 15.0628 28.879C15.5401 28.3399 16.231 28.0305 16.958 28.03H16.9583C17.6858 28.03 18.3775 28.3399 18.8555 28.8794C18.9678 29.0062 19.1057 29.1077 19.2602 29.1772C19.4147 29.2467 19.5822 29.2826 19.7516 29.2824C20.0336 29.2824 20.3171 29.1834 20.5449 28.9815C20.943 28.6287 21.0349 28.0757 20.8333 27.6131C20.8183 27.5037 20.7935 27.3945 20.7464 27.2886ZM46.653 27.6139C46.6381 27.5041 46.6133 27.3945 46.566 27.2881C45.8551 25.6887 44.4039 24.6956 42.7787 24.6956C41.1528 24.6956 39.7015 25.6888 38.9906 27.2881C38.9434 27.3944 38.9186 27.504 38.9037 27.6136C38.7024 28.0762 38.7948 28.6294 39.1933 28.9817C39.6884 29.421 40.4448 29.3727 40.8826 28.8788C41.3591 28.3396 42.0499 28.0302 42.7771 28.0298H42.7779C43.5051 28.0298 44.1966 28.3396 44.6746 28.8792C44.7869 29.006 44.925 29.1076 45.0795 29.1771C45.2341 29.2466 45.4017 29.2824 45.5712 29.2822C45.8634 29.2823 46.1456 29.1753 46.3641 28.9812C46.7618 28.6291 46.8543 28.0764 46.653 27.6139Z" fill="#2B3B47"/>
<path d="M55.7986 31.1514C55.8155 30.7679 55.8279 30.3832 55.8279 29.9955C55.8279 23.0903 53.1162 16.8207 48.7012 12.1875C51.1987 16.2326 52.6414 20.9977 52.6414 26.1015C52.6414 40.7652 40.7524 52.6554 26.0876 52.6554C20.985 52.6554 16.2198 51.2126 12.1726 48.7168C16.8081 53.1289 23.0776 55.8404 29.9826 55.8404C41.7367 55.8404 51.6508 47.9929 54.7877 37.2524H55.3983C57.0942 37.2524 58.4691 35.8775 58.4691 34.1817C58.4691 32.6229 57.3033 31.3494 55.7986 31.1514Z" fill="#E583C9"/>
</svg>
