<svg width="35" height="35" viewBox="0 0 35 35" fill="none" xmlns="http://www.w3.org/2000/svg">
<path fill-rule="evenodd" clip-rule="evenodd" d="M21.5133 2.79121C20.6962 3.91576 20.2007 5.24154 20.0799 6.62634C19.9592 8.01113 20.2177 9.40268 20.8277 10.6517C21.4378 11.9007 22.3763 12.9601 23.5428 13.7162C24.7092 14.4723 26.0595 14.8966 27.4487 14.9435V14.9595C27.4706 15.2483 27.4925 15.5443 27.5217 15.8302C27.8673 19.107 28.6548 21.3573 29.4117 22.8345C29.9148 23.8189 30.4092 24.4723 30.7592 24.8675C30.9128 25.0417 31.0785 25.205 31.255 25.356L31.2696 25.3648C31.4567 25.5006 31.596 25.6922 31.6674 25.9121C31.7388 26.132 31.7387 26.3689 31.6671 26.5887C31.5955 26.8085 31.4561 27 31.2689 27.1357C31.0816 27.2713 30.8562 27.3442 30.625 27.3437H4.37499C4.14428 27.3434 3.91957 27.2702 3.73299 27.1345C3.54641 26.9988 3.40751 26.8076 3.33616 26.5882C3.2648 26.3688 3.26465 26.1325 3.33573 25.913C3.4068 25.6935 3.54545 25.5021 3.73186 25.3662L3.74353 25.356L3.83686 25.2773C3.92436 25.1985 4.06582 25.0658 4.24082 24.8675C4.59082 24.4737 5.0852 23.8204 5.58832 22.836C6.59457 20.8687 7.65624 17.5437 7.65624 12.25C7.65624 9.50683 8.67707 6.86288 10.5146 4.90288C12.355 2.93996 14.8662 1.82288 17.5 1.82288C18.058 1.82288 18.6088 1.87197 19.1523 1.97017C19.4994 2.03288 20.6369 2.38725 21.5133 2.79121Z" fill="white"/>
<path fill-rule="evenodd" clip-rule="evenodd" d="M22.2396 7.29163C22.2396 5.84122 22.8157 4.45023 23.8413 3.42464C24.8669 2.39905 26.2579 1.82288 27.7083 1.82288C29.1587 1.82288 30.5497 2.39905 31.5753 3.42464C32.6009 4.45023 33.1771 5.84122 33.1771 7.29163C33.1771 8.74203 32.6009 10.133 31.5753 11.1586C30.5497 12.1842 29.1587 12.7604 27.7083 12.7604C26.2579 12.7604 24.8669 12.1842 23.8413 11.1586C22.8157 10.133 22.2396 8.74203 22.2396 7.29163ZM14.4287 29.6785C14.553 29.6065 14.6903 29.5597 14.8327 29.5407C14.975 29.5217 15.1198 29.531 15.2586 29.568C15.3974 29.6049 15.5276 29.6689 15.6416 29.7562C15.7557 29.8434 15.8515 29.9523 15.9235 30.0766C16.0838 30.3527 16.3138 30.5818 16.5904 30.7411C16.8671 30.9004 17.1807 30.9842 17.5 30.9842C17.8192 30.9842 18.1328 30.9004 18.4095 30.7411C18.6862 30.5818 18.9161 30.3527 19.0764 30.0766C19.1485 29.9523 19.2444 29.8435 19.3586 29.7562C19.4728 29.669 19.603 29.6051 19.7419 29.5682C19.8808 29.5313 20.0255 29.5221 20.168 29.5412C20.3104 29.5602 20.4477 29.6071 20.5719 29.6792C20.6962 29.7513 20.8051 29.8472 20.8923 29.9614C20.9796 30.0756 21.0435 30.2058 21.0804 30.3447C21.1173 30.4836 21.1265 30.6283 21.1074 30.7708C21.0884 30.9132 21.0414 31.0505 20.9693 31.1748C20.6169 31.7827 20.1108 32.2873 19.5019 32.6381C18.893 32.9888 18.2027 33.1735 17.5 33.1735C16.7973 33.1735 16.1069 32.9888 15.498 32.6381C14.8891 32.2873 14.3831 31.7827 14.0306 31.1748C13.9584 31.0504 13.9113 30.913 13.8922 30.7705C13.8732 30.6279 13.8824 30.483 13.9193 30.3441C13.9563 30.2051 14.0203 30.0748 14.1078 29.9606C14.1952 29.8463 14.3042 29.7505 14.4287 29.6785Z" fill="white"/>
</svg>
