<svg width="27" height="29" viewBox="0 0 27 29" fill="none" xmlns="http://www.w3.org/2000/svg">
<path d="M25.1666 27.625V24.7083C25.1666 23.1612 24.5521 21.6775 23.4581 20.5835C22.3641 19.4896 20.8804 18.875 19.3333 18.875H17.875C17.4882 18.875 17.1173 18.7214 16.8438 18.4479C16.5703 18.1744 16.4166 17.8034 16.4166 17.4167V10.125C16.4166 9.35145 16.1094 8.60959 15.5624 8.06261C15.0154 7.51562 14.2735 7.20833 13.5 7.20833C12.7264 7.20833 11.9846 7.51562 11.4376 8.06261C10.8906 8.60959 10.5833 9.35145 10.5833 10.125V23.25L7.08331 18.5833C6.81163 18.2211 6.45935 17.9271 6.05435 17.7246C5.64936 17.5221 5.20278 17.4167 4.74998 17.4167H4.11706C2.8556 17.4167 1.83331 18.439 1.83331 19.7004C1.83331 20.1146 1.9456 20.5215 2.15852 20.8758L6.20831 27.625M13.5 2.83333V1.375M22.25 11.5833H23.7083M3.29165 11.5833H4.74998M6.70852 4.79187L5.67748 3.76083M20.2914 4.79187L21.3225 3.76083" stroke="white" stroke-width="2" stroke-linecap="round" stroke-linejoin="round"/>
</svg>
